<?xml version="1.0" encoding="UTF-8"?>
<svg version="1.1" xmlns="http://www.w3.org/2000/svg" width="100" height="100">
<style>
  .bg { fill: #000000; }
  .icon { fill: #ffffff; }
    
  @media (prefers-color-scheme: dark) {
    .bg { fill: #000000; }
    .icon { fill: #ffffff; }
  }
</style>
<path d="M0 0 C0.921875 2.046875 0.921875 2.046875 1 4 C-0.4375 6.75 -0.4375 6.75 -2 9 C-6.38605019 6.94145286 -10.30933309 4.22419064 -14.34375 1.55859375 C-18.09092573 -0.64011672 -20.95484733 -1.13408588 -25.25 -1.0625 C-26.4875 -1.041875 -27.725 -1.02125 -29 -1 C-28.25234375 -0.30390625 -27.5046875 0.3921875 -26.734375 1.109375 C-23.99349193 4.00687996 -22.23461969 6.80660003 -20.25 10.25 C-17.62535721 14.51718299 -17.62535721 14.51718299 -13.484375 17 C-11.24408644 17.22543784 -9.23234827 17.26870859 -7 17 C-7.38979206 23.55925943 -8.42113193 28.94526627 -11 35 C1.76363253 32.07196315 1.76363253 32.07196315 10.875 23.1875 C11.24625 22.465625 11.6175 21.74375 12 21 C13.65 21.33 15.3 21.66 17 22 C18 25 18 25 17.3984375 26.8671875 C13.92748971 33.67660415 9.65975387 38.12411553 3 42 C0.11823656 42.87869931 -2.76968102 43.33481749 -5.75 43.75 C-6.56895752 43.87286377 -7.38791504 43.99572754 -8.23168945 44.12231445 C-16.82202148 45.3009287 -25.35027457 45.2790234 -34 45 C-32.68692628 42.10147635 -31.27315362 40.01722783 -29.03125 37.765625 C-28.46019531 37.19199219 -27.88914062 36.61835937 -27.30078125 36.02734375 C-26.40939453 35.14755859 -26.40939453 35.14755859 -25.5 34.25 C-24.90574219 33.64800781 -24.31148437 33.04601562 -23.69921875 32.42578125 C-23.12816406 31.85730469 -22.55710937 31.28882813 -21.96875 30.703125 C-21.44732422 30.18395508 -20.92589844 29.66478516 -20.38867188 29.12988281 C-19 28 -19 28 -17 28 C-17 27.34 -17 26.68 -17 26 C-17.70511719 25.75507812 -18.41023438 25.51015625 -19.13671875 25.2578125 C-22.39763037 23.82532472 -24.96134115 22.00478131 -27.8125 19.875 C-28.78832031 19.15054688 -29.76414062 18.42609375 -30.76953125 17.6796875 C-31.50558594 17.12539063 -32.24164063 16.57109375 -33 16 C-32.34 15.67 -31.68 15.34 -31 15 C-31 14.34 -31 13.68 -31 13 C-31.58394531 12.91363281 -32.16789062 12.82726562 -32.76953125 12.73828125 C-35.61758287 11.79558115 -36.74812528 10.45501188 -38.6875 8.1875 C-39.59048828 7.15689453 -39.59048828 7.15689453 -40.51171875 6.10546875 C-42.01325052 3.98125451 -42.44498159 2.49758283 -43 0 C-44.31200404 -1.35432675 -45.64631404 -2.68733482 -47 -4 C-48.63469033 -6.69723904 -49 -7.78120986 -49 -11 C-31.77663211 -13.76804127 -14.06213367 -10.88681316 0 0 Z " class="icon" transform="translate(53,33)"/>
<path d="M0 0 C2.60274559 2.48958273 3.29233374 4.60683496 4.15625 8.0625 C2.02216886 10.19658114 -2.19415101 10.00602166 -5.08203125 10.46484375 C-7.74939942 11.04208184 -9.63946565 11.45342287 -11.84375 13.0625 C-12.4748989 15.39793899 -12.4748989 15.39793899 -12.84375 18.0625 C-15.49304929 23.97312025 -18.18182623 29.56542943 -23.84375 33.0625 C-23.410625 31.886875 -22.9775 30.71125 -22.53125 29.5 C-20.61839445 23.89551201 -19.72131069 18.14919866 -18.78515625 12.3203125 C-17.84375 9.0625 -17.84375 9.0625 -15.91796875 7.19140625 C-13.6178305 5.93954193 -11.30592977 4.95162047 -8.84375 4.0625 C-16.0022428 0.28445797 -16.0022428 0.28445797 -23.84375 0.0625 C-27.48959413 2.96260329 -29.44926748 5.62551016 -30.84375 10.0625 C-34.14375 10.0625 -37.44375 10.0625 -40.84375 10.0625 C-39.84891508 6.08316032 -39.16241226 4.92413964 -36.53125 2 C-35.63986328 0.99259766 -35.63986328 0.99259766 -34.73046875 -0.03515625 C-25.4370831 -9.40550576 -10.3721477 -7.066738 0 0 Z " class="icon" transform="translate(92.84375,33.9375)"/>
</svg>
